<?xml version="1.0" encoding="utf-8"?>
<!-- Generator: Adobe Illustrator 27.5.0, SVG Export Plug-In . SVG Version: 6.00 Build 0)  -->
<svg version="1.1" id="Livello_1" xmlns="http://www.w3.org/2000/svg" xmlns:xlink="http://www.w3.org/1999/xlink" x="0px" y="0px"
	 viewBox="0 0 595.3 841.9" style="enable-background:new 0 0 595.3 841.9;" xml:space="preserve">
<style type="text/css">
	.st0{display:none;}
	.st1{display:inline;}
	.st2{fill:#f5efe6;}
	.st3{fill:#f5efe6;}
	.st4{fill:none;stroke:#f5efe6;stroke-width:20;stroke-miterlimit:10;}
</style>
<g id="Livello_1_00000106111951706615696320000010138958343696926136_" class="st0">
	<g id="Livello_1_00000173138680629221945630000015930114023804138162_" class="st1">
	</g>
	<g id="Livello_2_00000085227983078932102400000003973039547633671045_" class="st1">
		<rect x="377.7" y="358.8" class="st2" width="105.5" height="105.5"/>
		<path class="st2" d="M551.3,152.6h-35V94.7h-53.5v57.9H246.3V94.2h-53.5v58.4h-40.4c-19,0-34.5,15.1-34.5,33.6v345.3
			c0,18.5,15.6,33.6,34.5,33.6h398.8c19,0,34.5-15.1,34.5-33.6V186.2C585.8,167.7,570.2,152.6,551.3,152.6z M538.6,519.8h-371V280.5
			h371.1L538.6,519.8L538.6,519.8z"/>
		<path class="st3" d="M167.6,281v239.3h371.1V281H167.6z M483.2,464.4H377.7V358.8h105.5V464.4z"/>
		<rect x="377.7" y="358.8" class="st2" width="105.5" height="105.5"/>
		<rect x="377.7" y="358.8" class="st2" width="105.5" height="105.5"/>
		<path class="st2" d="M9.5,304.3h52v319h369.1v53.5h-371c-27.7,0-50.1-22.4-50.1-50.1L9.5,304.3L9.5,304.3z"/>
	</g>
</g>
<g id="Livello_2_00000029027438833749243610000014920621243414498997_" class="st0">
	
		<image style="display:inline;overflow:visible;enable-background:new    ;" width="130" height="130" xlink:href="../../../Downloads/icons/Event Accepted.png"  transform="matrix(4.3094 0 0 4.3094 13.7935 128.138)">
	</image>
</g>
<g id="Livello_3">
	<g>
		<path class="st4" d="M235.2,241.1c0,59.2-48,107.1-107.1,107.1c-12.3,0-24.2-2.1-35.2-5.9C51,327.7,21,287.9,21,241.1
			C21,182,69,134,128.1,134c56.9,0,103.4,44.3,106.9,100.3C235.2,236.5,235.2,238.8,235.2,241.1z"/>
		<polyline class="st4" points="190,203.4 159.1,234.3 113.4,280 92.9,261.2 73.5,243.5 		"/>
		<path class="st4" d="M546,240.6v384.9c0,3.5-2.8,6.3-6.3,6.3H99.2c-3.5,0-6.3-2.8-6.3-6.3V342.3c11,3.8,22.9,5.9,35.2,5.9
			c59.2,0,107.1-48,107.1-107.1c0-2.3-0.1-4.6-0.2-6.8h58.9v27.2c0,10.2,8.3,18.5,18.5,18.5h5.3c10.2,0,18.5-8.3,18.5-18.5v-27.2
			h102V258c0,10.2,8.3,18.5,18.5,18.5h5.3c10.2,0,18.5-8.3,18.5-18.5v-23.8h59.2C543.1,234.3,546,237.1,546,240.6z"/>
		<path class="st4" d="M336.2,190v71.5c0,10.2-8.3,18.5-18.5,18.5h-5.3c-10.2,0-18.5-8.3-18.5-18.5V190c0-10.2,8.3-18.5,18.5-18.5
			h5.3C327.9,171.5,336.2,179.7,336.2,190z"/>
		<line class="st4" x1="494.9" y1="305.1" x2="494.9" y2="343.9"/>
		<line class="st4" x1="450.1" y1="305.1" x2="450.1" y2="343.9"/>
		<line class="st4" x1="405" y1="305.1" x2="405" y2="343.9"/>
		<line class="st4" x1="360.2" y1="305.1" x2="360.2" y2="343.9"/>
		<line class="st4" x1="315" y1="305.1" x2="315" y2="343.9"/>
		<line class="st4" x1="272.5" y1="305.1" x2="272.5" y2="343.9"/>
		<polygon class="st4" points="373.1,550 314.7,507 255.7,549.4 278.5,480.5 220.1,437.5 292.6,437.9 315.4,369.1 337.5,438.2 
			410,438.6 351.1,480.9 		"/>
		<line class="st4" x1="108.8" y1="585" x2="521.7" y2="585"/>
		<line class="st4" x1="233.2" y1="305.1" x2="233.2" y2="343.9"/>
		<path class="st4" d="M480.5,186.5V258c0,10.2-8.3,18.5-18.5,18.5h-5.3c-10.2,0-18.5-8.3-18.5-18.5v-71.5
			c0-10.2,8.3-18.5,18.5-18.5h5.3C472.2,168,480.5,176.3,480.5,186.5z"/>
	</g>
</g>
</svg>
