<?xml version="1.0" encoding="utf-8"?>
<!-- Generator: Adobe Illustrator 27.5.0, SVG Export Plug-In . SVG Version: 6.00 Build 0)  -->
<svg version="1.1" id="Livello_1" xmlns="http://www.w3.org/2000/svg" xmlns:xlink="http://www.w3.org/1999/xlink" x="0px" y="0px"
	 viewBox="0 0 992.1 992.1" style="enable-background:new 0 0 992.1 992.1;" xml:space="preserve">
<style type="text/css">
	.st0{fill:#FEF9F2;stroke:#8A2D0E;stroke-width:14;stroke-miterlimit:10;}
	.st1{fill:#8A2D0E;stroke:#FEF9F2;stroke-width:14;stroke-miterlimit:10;}
</style>
<g id="Livello_3">
	<g>
		<path class="st0" d="M403.4,220.5c0,109.7-88.9,198.4-198.4,198.4c-22.8,0-44.8-3.9-65.2-10.9C62.2,380.8,6.7,307.1,6.7,220.5
			C6.7,111,95.6,22.1,205.1,22.1c105.4,0,191.5,82.1,198,185.8C403.4,211.9,403.4,216.2,403.4,220.5z"/>
		<polyline class="st0" points="319.7,150.7 262.5,207.8 177.8,292.5 139.9,257.7 104,224.9 		"/>
		<path class="st0" d="M979.1,219.5v712.8c0,6.4-5.2,11.6-11.6,11.6H151.5c-6.4,0-11.6-5.2-11.6-11.6V407.9
			c20.4,7.1,42.4,10.9,65.2,10.9c109.7,0,198.4-88.9,198.4-198.4c0-4.2-0.2-8.6-0.4-12.6h109.1v50.4c0,18.9,15.4,34.2,34.2,34.2h9.8
			c18.9,0,34.2-15.4,34.2-34.2v-50.4h188.9v43.9c0,18.9,15.4,34.2,34.2,34.2h9.8c18.9,0,34.2-15.4,34.2-34.2v-44.1h109.7
			C973.7,207.8,979.1,213,979.1,219.5z"/>
		<path class="st0" d="M590.5,125.8v132.5c0,18.9-15.4,34.2-34.2,34.2h-9.8c-18.9,0-34.2-15.4-34.2-34.2V125.8
			c0-18.9,15.4-34.2,34.2-34.2h9.8C575.1,91.5,590.5,106.7,590.5,125.8z"/>
		<line class="st0" x1="884.4" y1="339" x2="884.4" y2="410.8"/>
		<line class="st0" x1="801.5" y1="339" x2="801.5" y2="410.8"/>
		<line class="st0" x1="717.9" y1="339" x2="717.9" y2="410.8"/>
		<line class="st0" x1="634.9" y1="339" x2="634.9" y2="410.8"/>
		<line class="st0" x1="551.2" y1="339" x2="551.2" y2="410.8"/>
		<line class="st0" x1="472.5" y1="339" x2="472.5" y2="410.8"/>
		<polygon class="st1" points="658.9,792.5 550.7,712.9 441.4,791.5 483.6,663.8 375.5,584.2 509.7,584.9 552,457.5 592.9,585.5 
			727.2,586.2 618.1,664.6 		"/>
		<line class="st0" x1="169.4" y1="857.4" x2="934.1" y2="857.4"/>
		<line class="st0" x1="399.8" y1="339" x2="399.8" y2="410.8"/>
		<path class="st0" d="M857.8,119.3v132.5c0,18.9-15.4,34.2-34.2,34.2h-9.8c-18.9,0-34.2-15.4-34.2-34.2V119.3
			c0-18.9,15.4-34.2,34.2-34.2h9.8C842.4,85.1,857.8,100.4,857.8,119.3z"/>
	</g>
</g>
</svg>
