<?xml version="1.0" encoding="utf-8"?>
<!-- Generator: Adobe Illustrator 27.5.0, SVG Export Plug-In . SVG Version: 6.00 Build 0)  -->
<svg version="1.1" id="Livello_1" xmlns="http://www.w3.org/2000/svg" xmlns:xlink="http://www.w3.org/1999/xlink" x="0px" y="0px"
	 viewBox="0 0 566.9 566.9" style="enable-background:new 0 0 566.9 566.9;" xml:space="preserve">
<style type="text/css">
	.st0{fill:none;stroke:#f5efe6;stroke-width:16.3665;stroke-miterlimit:10;}
	.st1{fill:none;stroke:#f5efe6;stroke-width:20.3359;stroke-miterlimit:10;}
	.st2{fill:#f5efe6;stroke:#f5efe6;stroke-width:16.3665;stroke-miterlimit:10;}
</style>
<g>
	<path class="st0" d="M128.7,344.2c1.1-10.3,1.8-21.4,1.8-32.9c0-29.5-3.9-56.1-10.6-75.4c-9.5-5.2-20.1-8.2-31.4-8.2
		c-6.7,0-13.3,1-19.5,3.1c5.4-13.9,12.1-23.2,19.5-26.2C106.7,113.3,143.7,36.2,277,36.2c184.5,0,200.7,170,201.1,170.2
		c12.3,7.9,6,6.7,12.4,22.6c-3.9-1-8-1.3-12.3-1.3c-14.6,0-28,4.7-39.4,13.1c-5.7,18.8-9.2,43.5-9.2,70.5c0,8.8,0.3,17.3,1.1,25.5"
		/>
	<path class="st1" d="M130.5,311.3c0,11.5-0.7,22.6-1.8,32.9c-1.6,16.2-4.7,30.8-8.8,42.6v0.2c-6.7,19.8-16,32.1-26.4,32.1
		c-9.5,0-18-10.3-24.5-27.2c-7.7-19.6-12.6-48.4-12.6-80.5s4.9-60.9,12.6-80.5c6.2-2.1,12.8-3.1,19.5-3.1c11.3,0,21.9,2.9,31.4,8.2
		C126.6,255.2,130.5,281.9,130.5,311.3z"/>
	<path class="st1" d="M69,230.8c-7.7,19.6-12.6,48.4-12.6,80.5s4.9,60.9,12.6,80.5c-31.1-9.7-53.8-42.1-53.8-80.5
		C15.1,272.9,37.9,240.5,69,230.8z"/>
	<path class="st1" d="M503.7,311.3c0,33.1-5.1,62.5-13.3,82.3c-6.4,15.9-14.6,25.4-23.7,25.4c-11.1,0-21.1-14.4-28-37.3
		c-3.8-12.6-6.4-28-7.9-44.8c-0.8-8.2-1.1-16.7-1.1-25.5c0-27,3.4-51.7,9.2-70.5c11.5-8.3,24.9-13.1,39.4-13.1
		c4.3,0,8.3,0.3,12.3,1.3C498.6,248.7,503.7,278.3,503.7,311.3z"/>
	<path class="st1" d="M551.8,311.3c0,41.4-26.5,75.9-61.4,82.3c8.2-19.8,13.3-49.3,13.3-82.3s-5.1-62.7-13.1-82.3
		C525.4,235.6,551.8,269.9,551.8,311.3z"/>
	<path class="st2" d="M466.2,203.6"/>
</g>
</svg>
