<?xml version="1.0" encoding="utf-8"?>
<!-- Generator: Adobe Illustrator 24.0.1, SVG Export Plug-In . SVG Version: 6.00 Build 0)  -->
<svg version="1.1" id="Livello_1" xmlns="http://www.w3.org/2000/svg" xmlns:xlink="http://www.w3.org/1999/xlink" x="0px" y="0px"
	 viewBox="0 0 992.1 992.1" style="enable-background:new 0 0 992.1 992.1;" xml:space="preserve">
<style type="text/css">
	.st0{fill:#FEF9F2;}
	.st1{fill:#FEF9F2;stroke:#8A2D0E;stroke-width:50;stroke-miterlimit:10;}
	.st2{fill:#8A2D0E;}
	.st3{fill:#FFFFFF;stroke:#FEF9F2;stroke-width:50;stroke-miterlimit:10;}
</style>
<g>
	<g>
		<path class="st0" d="M200,697.7c1.6-15.3,2.7-30.5,3-45.7c0.1-3.8,0.1-7.6,0.1-11.4c0-3.8,0-7.6-0.2-11.5
			c-0.2-7.6-0.6-15.2-1-22.8c-1.1-15.2-2.7-30.2-5.3-45c-1.3-7.4-2.8-14.6-4.6-21.7c-1.8-7.1-3.8-14.1-6.1-20.8l11.6,13.7
			c-5.4-2.9-11-5.4-16.7-7.2c-5.7-1.8-11.6-3-17.5-3.7c-3-0.3-5.9-0.4-8.9-0.5c-3,0-6,0.2-9,0.5c-5.9,0.6-11.7,1.9-17.3,3.7
			l-50.6,16.6L97,492.5c2-5.1,4.2-10.2,6.7-15.4c2.5-5.1,5.4-10.3,8.8-15.5c3.4-5.2,7.4-10.4,12.4-15.5c5.1-5,11.6-10.1,20.1-13.7
			l0,0L130,450.8c1.8-5.4,3.3-10.7,4.8-16.1c0.8-2.7,1.5-5.4,2.3-8.1c0.7-2.7,1.4-5.4,2.2-8.1c3-10.8,5.8-21.7,8.9-32.6
			c6.1-21.8,12.6-43.7,20.6-65.6c8-21.9,17.8-43.6,30-64.7l2.3-4c0.7-1.3,1.6-2.6,2.4-3.9l4.9-7.8l1.2-2c0.4-0.6,0.9-1.3,1.3-1.9
			l2.7-3.8c1.8-2.5,3.6-5.1,5.4-7.6c7.6-9.9,15.6-19.7,24.6-28.8c17.8-18.3,38.3-34.5,60.5-47.5c22.2-13.1,46-23.1,70.1-30.1
			c24.1-7.1,48.6-11.3,72.8-13.5l9.1-0.7l4.5-0.4c1.5-0.1,3-0.1,4.5-0.2c6-0.2,12-0.4,18-0.5c6-0.1,12.1,0.1,18.2,0.2
			c6.1,0.3,12.2,0.6,18.3,1.1c24.4,2,49,6.3,73,13.2c24,7.1,47.5,16.7,69.5,29.2c11,6.2,21.6,13,31.8,20.4
			c10.1,7.4,19.9,15.2,29.1,23.7c1.2,1,2.3,2.1,3.4,3.2l3.4,3.2c1.1,1.1,2.3,2.1,3.4,3.2l3.3,3.3c2.2,2.2,4.3,4.4,6.4,6.7
			c2.1,2.3,4.2,4.5,6.2,6.8l6,6.9l5.8,7.1c1.9,2.4,3.8,4.8,5.6,7.1c1.9,2.4,3.6,4.8,5.5,7.2c14.3,19.5,26.7,39.8,37.3,60.7
			c10.7,20.9,19.6,42.3,27.2,64.1c7.5,21.8,13.7,43.9,18.6,66.6c0.6,2.8,1.2,5.7,1.7,8.6c0.6,2.9,1.1,5.8,1.6,8.6l0.2,1l0,0.1
			c-0.1,1.6,1.1-0.3-3.5-8.6c-6.2-7.2-8.1-6.7-6.6-6.2l2.2,1.3c1.5,0.9,2.9,1.8,4.3,2.8c0.7,0.5,1.4,0.9,2.2,1.5l2.4,1.8
			c0.7,0.5,1.7,1.4,2.7,2.2l1.4,1.2c0.2,0.2,0.5,0.5,0.8,0.8l0.8,0.8c0.5,0.6,1,1.1,1.6,1.7c0.1,0.2,0.2,0.3,0.4,0.4l0.4,0.5
			l0.8,1.1c0.5,0.7,1,1.5,1.5,2.3c0.5,0.8,0.9,1.6,1.4,2.5l0.6,1.3c0.2,0.4,0.4,0.9,0.5,1.2c0.3,0.8,0.6,1.5,0.9,2.3l0.4,1.2
			l0.3,0.9l0.5,1.8l1.2,4.8l0.2,0.9l0.2,0.8c0.2,0.5,0.3,1,0.5,1.5c0.7,1.9,1.3,3.7,2.2,5.7c0.8,1.9,1.9,3.9,3,5.8l0,0l25.5,47.9
			l-55.1-14.5c-2.1-0.5-4.6-1-7.4-1.2c-1.4-0.1-3-0.2-4.6-0.2c-1.6,0-3.3,0-4.9,0c-3.2,0-6.3,0.3-9.4,0.6c-3.1,0.4-6.2,0.9-9.2,1.6
			c-6.1,1.4-11.9,3.4-17.6,6.1c-5.7,2.6-11,5.9-16.2,9.7l9-12.8c-1.8,6.1-3.5,12.4-5,18.8c-1.5,6.4-2.7,12.9-3.8,19.4
			c-2.2,13.1-3.8,26.4-4.8,39.8c-1,13.4-1.5,26.9-1.4,40.4c0,13.6,0.5,27,1.8,40l-49.8,4.8c-1.5-15.1-2-30-2-44.7
			c-0.1-14.7,0.5-29.6,1.6-44.4c1.1-14.8,2.9-29.6,5.3-44.4c1.3-7.4,2.7-14.8,4.4-22.2c1.7-7.4,3.6-14.8,5.9-22.2l2.4-7.9l6.6-4.9
			c7.7-5.7,16-10.7,24.8-14.8c8.8-4.1,18.1-7.4,27.6-9.5c4.7-1.1,9.6-1.9,14.4-2.5c4.8-0.5,9.7-0.9,14.5-1c2.5-0.1,4.7-0.1,7.1,0
			c2.4,0.1,4.8,0.2,7.4,0.4c5.1,0.4,10.5,1.2,16.1,2.7l-29.6,33.5l0,0c-0.9-3.2-1.8-6.2-2.6-9.6c-0.4-1.6-0.8-3.3-1.2-5
			c-0.4-1.7-0.7-3.4-1-5.1c-0.2-0.9-0.3-1.7-0.4-2.5l-0.2-1.2l-0.1-1.1c-0.2-1.5-0.3-2.7-0.4-3.3c0-0.1,0-0.1,0-0.2c0,0,0-0.1,0-0.1
			c0,0.1,0,0.1,0.1,0.2c0.1,0.1,0.1,0.2,0.2,0.4c0,0,0.1,0.2,0.1,0.3c0.1,0.1,0.1,0.2,0.2,0.4c0.1,0.2,0.3,0.5,0.4,0.7
			c0.1,0.2,0.2,0.4,0.4,0.6c0.1,0.1,0.2,0.2,0.2,0.3l0.1,0.1c0,0,0,0,0.1,0.1c0.1,0.1,0.1,0.1,0.2,0.2c0,0,0.1,0.1,0.1,0.1
			c0,0,0.1,0.1,0.1,0c0-0.1-0.1-0.1-0.1-0.2c-0.1-0.1-0.1-0.2-0.4-0.5l-0.8-0.8c-0.3-0.3-0.8-0.6-1.2-0.9c-0.8-0.7-1.6-1.3-2.4-1.8
			l-1.2-0.9c1.4,0.4-0.7,0.8-6.9-6.6c-4.6-8.5-3.5-10.5-3.6-9.1l-0.1-0.9l-0.1-1.1c-0.3-2.6-0.6-5-1-7.6c-0.4-2.5-0.8-5-1.2-7.5
			c-3.6-20.2-9.7-40.2-17.6-59.2c-4-9.5-8.4-18.8-13.4-27.8l-1.8-3.4l-1.9-3.3c-1.3-2.2-2.6-4.4-3.9-6.6c-1.3-2.2-2.7-4.3-4.1-6.4
			c-1.4-2.1-2.8-4.2-4.3-6.3c-11.7-16.6-25.2-31.7-40.1-44.7c-14.9-13-31.4-23.7-48.4-32.5c-8.5-4.4-17.3-8.1-26.2-11.4l-3.3-1.2
			c-1.1-0.4-2.2-0.8-3.3-1.2l-6.7-2.3c-2.2-0.7-4.5-1.4-6.8-2c-1.1-0.3-2.2-0.7-3.4-1l-3.4-0.9c-2.3-0.6-4.5-1.3-6.8-1.8
			c-2.3-0.5-4.6-1.1-6.8-1.7c-2.3-0.6-4.6-1-6.9-1.5l-3.4-0.8c-1.1-0.3-2.3-0.4-3.5-0.7c-2.3-0.4-4.6-0.9-6.9-1.3
			c-2.3-0.4-4.6-0.7-6.9-1.1l-3.4-0.6l-3.5-0.5l-6.9-1c-18.6-2.4-37.5-3.9-56.6-4.7c-4.8-0.2-9.6-0.2-14.4-0.5l-7.3-0.1
			c-2.4,0-4.8-0.1-7.3-0.1c-4.9,0.1-9.8,0.1-14.7,0.1l-3.7,0l-3.6,0.1l-7.3,0.2c-19.4,0.5-38.4,1.7-56.9,3.9
			c-4.6,0.7-9.2,1.2-13.8,1.9c-4.5,0.8-9.1,1.6-13.6,2.3c-4.4,1-8.9,1.9-13.4,2.9l-6.6,1.7l-3.3,0.8c-1.1,0.3-2.3,0.5-3.3,0.9
			l-6.5,2c-2.2,0.7-4.4,1.3-6.5,2.1l-6.4,2.4l-3.2,1.2l-3.1,1.4l-6.3,2.8l-1.6,0.7l-1.5,0.8l-3.1,1.6l-6.2,3.1l-5.9,3.5
			c-32.1,18.7-58.8,49.2-78,85.4c-9.6,18.1-17.4,37.6-23.3,57.7c-3,10.1-5.5,20.4-7.6,30.7c-1.1,5.2-1.9,10.5-2.8,15.7
			c-0.8,5.3-1.4,10.6-1.9,15.9l-15.1,18.3l0,0c-0.5,0.3-2,1.1-3.8,2.9c-1.8,1.8-3.9,4.4-5.8,7.4c-2,3-3.9,6.4-5.7,10
			c-1.8,3.6-3.4,7.5-5,11.5l-31.1-32.8c9.1-3,18.4-5,27.8-5.9c4.7-0.5,9.4-0.7,14.1-0.7c4.7,0,9.4,0.2,14.1,0.7
			c9.4,1,18.6,2.9,27.6,5.8c8.9,2.8,17.5,6.6,25.6,11l8.4,4.6l3.2,9.1c2.9,8.4,5.3,16.8,7.4,25.2c2.1,8.4,3.8,16.8,5.3,25.1
			c3,16.8,4.8,33.5,6,50.2c0.5,8.3,1,16.7,1.1,25c0.1,4.2,0.1,8.3,0.2,12.5c0,4.2,0,8.4-0.1,12.6c-0.3,16.8-1.5,33.4-3.2,49.9
			L200,697.7z"/>
	</g>
	<path class="st1" d="M228,642.6c0,20.1-1.2,39.6-3.2,57.6c-2.8,28.4-8.2,54-15.4,74.6v0.4c-11.7,34.7-28,56.2-46.3,56.2
		c-16.6,0-31.5-18-42.9-47.7c-13.5-34.3-22.1-84.8-22.1-141c0-56.2,8.6-106.7,22.1-141c10.9-3.7,22.4-5.4,34.2-5.4
		c19.8,0,38.4,5.1,55,14.4C221.2,544.4,228,591.1,228,642.6z"/>
	<g>
		<path class="st0" d="M120.3,501.6c-13.5,34.3-22.1,84.8-22.1,141c0,56.2,8.6,106.7,22.1,141C65.8,766.7,26,709.9,26,642.6
			C25.8,575.4,65.8,518.6,120.3,501.6z"/>
		<path class="st2" d="M138.6,484.6c1,2.7,2,5.9,2.6,9.4c0.6,3.5,0.7,7.3,0.1,10.9c-0.5,3.6-1.6,6.8-2.8,9.4l-0.5,1
			c0,0.1-0.1,0.2-0.1,0.2l-0.1,0l-0.1,0.1l-0.4,0.4l-0.8,0.8c-1,1.1-2.1,2.2-3.1,3.3c-0.5,0.6-1,1.1-1.5,1.7c-0.5,0.6-1,1.2-1.4,1.7
			c-0.9,1.2-1.9,2.4-2.8,3.6c-0.9,1.2-1.7,2.5-2.6,3.7c-1.7,2.5-3.3,5.1-4.8,7.7c-6,10.5-10.6,21.7-14,33.2
			c-3.4,11.5-5.6,23.3-6.8,35.2l-0.4,4.5c-0.1,1.5-0.2,3-0.3,4.5c-0.2,3-0.3,6-0.3,9c-0.2,6-0.1,12,0.1,17.9
			c0.9,23.9,4.5,47.7,11.5,70.5c3.5,11.4,7.9,22.5,13.4,32.9c1.4,2.6,2.8,5.2,4.3,7.7c0.8,1.3,1.5,2.5,2.3,3.7
			c0.8,1.2,1.6,2.4,2.4,3.6c3.3,4.8,6.9,9.3,11,13.3l0,0l17.8,48.1l-48.5-15.1C95.3,802,79,793.1,65,781.8
			c-14.1-11.3-26-24.8-35.5-39.7C10.4,712.3,1,677.2,1,642.6c0-17.3,2.3-34.8,7-51.6c4.7-16.8,11.9-33.1,21.4-48
			c9.5-14.9,21.5-28.4,35.5-39.7c7-5.6,14.6-10.7,22.6-15c2-1.1,4.1-2.1,6.1-3.1c2-1,4.2-1.9,6.3-2.8c2.1-0.9,4.3-1.7,6.4-2.5
			l0.5-0.2c0.6-0.2,1.2-0.4,1.9-0.6c1.3-0.4,2.7-0.7,4.2-1c3-0.5,6.3-0.6,9.6-0.2c3.3,0.4,6.5,1.4,9.3,2.6
			C134.5,481.8,136.8,483.2,138.6,484.6z M102,518.6c0.9,1.6,2.3,3.4,4.1,4.9c1.8,1.5,4.2,2.8,6.6,3.5c2.4,0.7,4.9,0.9,6.9,0.7
			c1-0.1,2-0.3,2.8-0.5c0.4-0.1,0.8-0.2,1.2-0.4c0.1-0.1,0.1,0,0.1,0l-0.1,0l-0.1,0.1c-1.4,0.6-2.8,1.1-4.1,1.6
			c-1.4,0.6-2.7,1.2-4.1,1.8c-1.3,0.7-2.7,1.3-4,2c-5.3,2.9-10.3,6.2-15.1,10c-9.5,7.6-17.9,17-24.6,27.6
			c-6.8,10.6-12,22.3-15.4,34.5c-3.4,12.3-5.2,25-5.1,38c0,13,1.7,25.7,5.2,38c3.4,12.3,8.6,24,15.4,34.6
			c6.7,10.6,15.1,20,24.6,27.6c9.5,7.6,20.2,13.4,31.5,16.9l-30.7,33l0,0c-0.5-14.2-0.9-27.3-1-40.1c-0.1-12.8-0.1-25.2,0.1-37.5
			c0.3-24.6,0.9-48.6,1.7-72.5l1.5-35.9c0.4-12,0.6-24,0.6-36.1c0-12.2-0.3-24.5-0.7-37.3l-0.4-9.7c-0.1-1.6-0.1-3.3-0.2-4.9
			c-0.1-1.7-0.1-3.3-0.2-5c-0.2-3.4-0.3-6.8-0.6-10.3l-0.1-1.3l-0.1-0.7l0-0.2l0-0.1c0,0,0,0.1-0.1,0.1c-0.1,0.1-0.2,0.3-0.3,0.4
			c-0.7,1.2-1.2,3-1.2,5.2c0,2.1,0.6,4.6,1.7,6.7C98.9,515.6,100.5,517.3,102,518.6z"/>
	</g>
	<path class="st1" d="M881.8,642.6c0,58-8.9,109.5-23.3,144.2c-11.2,27.9-25.5,44.5-41.5,44.5c-19.4,0-37-25.2-49.1-65.3
		c-6.7-22.1-11.2-49.1-13.8-78.5c-1.4-14.4-1.9-29.3-1.9-44.7c0-47.3,6-90.6,16.1-123.5c20.1-14.5,43.6-23,69-23
		c7.5,0,14.5,0.5,21.5,2.3C872.9,533,881.8,584.8,881.8,642.6z"/>
	<g>
		<path class="st0" d="M966.1,642.6c0,72.5-46.4,133-107.6,144.2c14.4-34.7,23.3-86.4,23.3-144.2c0-57.8-8.9-109.8-23-144.2
			C919.9,510,966.1,570.1,966.1,642.6z"/>
		<path class="st2" d="M991.1,642.6c0,18.6-2.7,37.4-8.2,55.3c-5.5,18-13.8,35.2-24.8,50.8c-11,15.5-24.8,29.4-40.9,40.3
			c-16.1,10.9-34.7,18.8-54.2,22.4l-44.1,8l16.5-42.2l0,0c4.5-3.9,8.4-8.4,12-13.2c0.9-1.2,1.8-2.4,2.6-3.7c0.8-1.3,1.7-2.5,2.5-3.8
			c1.7-2.5,3.1-5.2,4.6-7.8c5.8-10.7,10.4-22,14-33.7c7.2-23.4,10.5-47.9,10.7-72.4c0.2-24.5-2.8-49-9.9-72.5
			c-3.6-11.7-8.1-23.1-14-33.8c-1.5-2.7-3-5.3-4.7-7.8c-0.8-1.3-1.6-2.5-2.5-3.8c-0.9-1.2-1.8-2.5-2.7-3.7
			c-3.6-4.8-7.7-9.3-12.3-13.1l0,0l-16.3-42.4l44.1,8.4c19.4,3.7,37.9,11.6,54,22.5c16.1,10.9,29.8,24.8,40.8,40.3
			c11,15.5,19.2,32.8,24.7,50.7C988.4,605.3,991.1,624,991.1,642.6z M941.1,642.6c0-13.8-2-27.6-6-40.7c-4-13.1-9.9-25.5-17.7-36.4
			c-7.7-11-17.3-20.5-28-27.8c-10.8-7.3-22.8-12.4-35.2-14.8l27.8-34l0,0c-0.1,7.5,0.1,14.6,0,21.4l0,5.1c0,1.7,0,3.4,0,5
			c0,1.7,0,3.3,0,5l0,4.9l-0.3,38.3c-0.1,12.5-0.1,24.9-0.1,37.2c0,12.3,0.1,24.5,0.3,36.8l0.5,74c0.1,12.5,0.1,25.2,0,38.3
			c-0.1,3.3,0,6.6-0.1,9.9l-0.1,5l-0.1,5.1c0,6.9-0.4,13.9-0.5,21.3l0,0L854,762.2c12.5-2.3,24.5-7.3,35.2-14.6
			c10.8-7.3,20.3-16.8,28.1-27.8c7.8-11,13.8-23.4,17.8-36.5C939.1,670.2,941.1,656.5,941.1,642.6z"/>
	</g>
	<path class="st3" d="M816.1,454"/>
</g>
</svg>
