<?xml version="1.0" encoding="utf-8"?>
<!-- Generator: Adobe Illustrator 27.5.0, SVG Export Plug-In . SVG Version: 6.00 Build 0)  -->
<svg version="1.1" id="Livello_1" xmlns="http://www.w3.org/2000/svg" xmlns:xlink="http://www.w3.org/1999/xlink" x="0px" y="0px"
	 viewBox="0 0 595.3 841.9" style="enable-background:new 0 0 595.3 841.9;" xml:space="preserve">
<style type="text/css">
	.st0{display:none;}
	.st1{fill:none;stroke:#f5efe6;stroke-width:20;stroke-miterlimit:10;}
</style>
<g id="Livello_1_00000060731056136090804600000011016529414102003881_" class="st0">
	
		<image style="display:inline;overflow:visible;enable-background:new    ;" width="130" height="130" xlink:href="../../../Downloads/icons/Trekking.png"  transform="matrix(1 0 0 1 233 355.89)">
	</image>
</g>
<g id="Livello_2_00000150074755722129125100000004613647753428491675_">
	<g>
		<circle class="st1" cx="315" cy="67.9" r="48"/>
		<line class="st1" x1="480.1" y1="553.2" x2="480.1" y2="233.6"/>
		<line class="st1" x1="480.1" y1="171.8" x2="480.1" y2="115.9"/>
		<line class="st1" x1="26.3" y1="289.3" x2="26.3" y2="328.2"/>
		<line class="st1" x1="74.8" y1="289.3" x2="74.8" y2="328.2"/>
		<line class="st1" x1="382.2" y1="289.3" x2="382.2" y2="328.2"/>
		<line class="st1" x1="431.1" y1="289.3" x2="431.1" y2="328.2"/>
		<line class="st1" x1="526.7" y1="289.3" x2="526.7" y2="328.2"/>
		<line class="st1" x1="575.7" y1="289.3" x2="575.7" y2="328.2"/>
		<path class="st1" d="M402.3,190v64.1c0,1.6-1.8,2.6-3.2,1.8l-50.4-29.7l-10.5,82.6H211.6c0,0,0-0.1,0-0.4c0-0.1,0-0.3,0-0.5l0,0
			c0.3-6.1,2.4-42.5,6.5-79.2c0-0.2,0-0.4,0.1-0.6c3.1-27.7,7.3-55.4,12.9-69.9c1.1-2.9,2.2-5.3,3.5-7c0,0,7.8-11.9,23.8-11.9
			l93.3,12.3c0,0,10.1,4.1,16.5,9.6L402.3,190z"/>
		<path class="st1" d="M493.8,224c0,0-0.5,3.3-13.7,9.6c-11.9,5.6-33.9,11.4-74.9,21.3c-1.4,0.3-2.8-0.7-2.8-2.2V190
			c0,0,53.2-24.6,77.8-18.3c3.9,1,7,2.7,9.1,5.5C489.2,177.2,511.7,197.1,493.8,224z"/>
		<path class="st1" d="M231,158.2c0,0-62.4-17.3-73.4,12.5l-38.4,115.4c0,0-9.6,34.3,22.4,39.3c0,0,67.6,19.3,70-16.7
			C211.6,308.7,219.7,172.5,231,158.2z"/>
		<polygon class="st1" points="211.6,308.7 208.4,405 278.4,405 282,371.3 303.9,405 360.7,379.4 338.3,308.7 		"/>
		<path class="st1" d="M210.2,407.1c0,0,5,35.5-5.9,46.9c0,0-48.5,50.8-38,74.6c0,0,10.5,32,34.8,24.7c0,0,16.9,0.9,32-23.8
			l42.1-68.6c0,0,5.9-15.1,3.2-55.8L210.2,407.1z"/>
		<path class="st1" d="M303.9,405l40.3,131.3c0,0,11,24.7,31.6,22c0,0,19.2,0,26.5-14.6c0,0,5.5-10.1,0-28.4
			c0,0-30.2-99.8-41.6-135.9L303.9,405z"/>
	</g>
</g>
</svg>
