<?xml version="1.0" encoding="utf-8"?>
<!-- Generator: Adobe Illustrator 27.5.0, SVG Export Plug-In . SVG Version: 6.00 Build 0)  -->
<svg version="1.1" id="Livello_1" xmlns="http://www.w3.org/2000/svg" xmlns:xlink="http://www.w3.org/1999/xlink" x="0px" y="0px"
	 viewBox="0 0 992.1 992.1" style="enable-background:new 0 0 992.1 992.1;" xml:space="preserve">
<style type="text/css">
	.st0{fill:#FFFAF3;stroke:#8A2D0E;stroke-width:20;stroke-miterlimit:10;}
</style>
<g id="Livello_2_00000150074755722129125100000004613647753428491675_">
	<g>
		<circle class="st0" cx="522.5" cy="107.5" r="84.6"/>
		<line class="st0" x1="813.6" y1="963.3" x2="813.6" y2="399.7"/>
		<line class="st0" x1="813.6" y1="290.7" x2="813.6" y2="192.1"/>
		<line class="st0" x1="13.4" y1="497.9" x2="13.4" y2="566.5"/>
		<line class="st0" x1="98.9" y1="497.9" x2="98.9" y2="566.5"/>
		<line class="st0" x1="641" y1="497.9" x2="641" y2="566.5"/>
		<line class="st0" x1="727.2" y1="497.9" x2="727.2" y2="566.5"/>
		<line class="st0" x1="895.8" y1="497.9" x2="895.8" y2="566.5"/>
		<line class="st0" x1="982.2" y1="497.9" x2="982.2" y2="566.5"/>
		<path class="st0" d="M676.5,322.8v113.1c0,2.8-3.2,4.6-5.7,3.2l-88.8-52.4l-18.5,145.7H340.1c0,0,0-0.2,0-0.7c0-0.2,0-0.5,0-0.8
			l0,0c0.5-10.7,4.2-74.9,11.5-139.7c0-0.3,0-0.7,0.2-1.1c5.5-48.8,12.8-97.7,22.7-123.3c1.9-5.2,3.9-9.4,6.2-12.3
			c0,0,13.8-20.9,42-20.9l164.4,21.7c0,0,17.8,7.3,29.1,16.9L676.5,322.8z"/>
		<path class="st0" d="M837.7,382.7c0,0-0.8,5.8-24.1,16.9c-20.9,9.9-59.8,20.1-132.1,37.6c-2.4,0.5-4.9-1.3-4.9-3.9V322.8
			c0,0,93.8-43.4,137.2-32.3c6.8,1.8,12.3,4.7,16,9.7C829.6,300.2,869.3,335.4,837.7,382.7z"/>
		<path class="st0" d="M374.4,266.7c0,0-110-30.5-129.5,22l-67.7,203.5c0,0-16.9,60.5,39.5,69.3c0,0,119.2,34,123.5-29.5
			C340.1,532.1,354.5,292,374.4,266.7z"/>
		<polygon class="st0" points="340.1,532.1 334.5,701.9 457.9,701.9 464.3,642.5 502.9,701.9 603.1,656.9 563.5,532.1 		"/>
		<path class="st0" d="M337.7,705.7c0,0,8.8,62.6-10.4,82.7c0,0-85.5,89.6-67.1,131.6c0,0,18.5,56.4,61.4,43.6c0,0,29.8,1.6,56.4-42
			l74.2-121c0,0,10.4-26.6,5.7-98.4L337.7,705.7z"/>
		<path class="st0" d="M502.9,701.9l71.1,231.6c0,0,19.4,43.6,55.7,38.8c0,0,33.9,0,46.7-25.8c0,0,9.7-17.8,0-50.1
			c0,0-53.3-176-73.4-239.7L502.9,701.9z"/>
	</g>
</g>
</svg>
