<?xml version="1.0" encoding="utf-8"?>
<!-- Generator: Adobe Illustrator 27.5.0, SVG Export Plug-In . SVG Version: 6.00 Build 0)  -->
<svg version="1.1" id="Livello_1" xmlns="http://www.w3.org/2000/svg" xmlns:xlink="http://www.w3.org/1999/xlink" x="0px" y="0px"
	 viewBox="0 0 595.3 841.9" style="enable-background:new 0 0 595.3 841.9;" xml:space="preserve">
<style type="text/css">
	.st0{display:none;}
	.st1{fill:none;stroke:#f5efe6;stroke-width:20;stroke-miterlimit:10;}
</style>
<g id="Livello_1_00000173137476298076084500000012377664359138343856_" class="st0">
	
		<image style="display:inline;overflow:visible;enable-background:new    ;" width="130" height="130" xlink:href="../../../Downloads/icons/Two Tickets.png"  transform="matrix(1 0 0 1 233 355.89)">
	</image>
</g>
<g id="Livello_2_00000155130464531724494640000017985332550553829046_">
	<g>
		<path class="st1" d="M503.7,293.9c0,28,19.9,51.4,46.3,56.8c6.7,1.4,11.7,7,11.7,13.8v70.8c0,7.7-6.3,14-14,14H147.6
			c-7.7,0-14-6.3-14-14v-70.8c0-6.8,5-12.4,11.7-13.8c2.6-0.5,5-1.2,7.4-2c0.6-0.2,1.2-0.5,1.8-0.7c4.8-1.9,9.2-4.3,13.3-7.2
			c0.6-0.5,1.3-0.9,1.9-1.4l0,0c0.6-0.5,1.3-1,1.9-1.6c0.6-0.5,1.1-1,1.7-1.5c4.5-4.3,8.4-9.3,11.4-14.8c0.4-0.7,0.7-1.3,1.1-2.1
			c1.6-3.3,2.9-6.7,3.9-10.3c0.2-0.5,0.3-1.1,0.5-1.7c0.1-0.6,0.3-1.2,0.4-1.8c0.2-0.9,0.4-1.9,0.5-2.8s0.3-1.9,0.3-2.7
			c0-0.1,0-0.2,0-0.3c0.1-1,0.2-1.9,0.2-2.9s0.1-2,0.1-3s0-2-0.1-3c0-0.9-0.1-1.9-0.2-2.7c0-0.8-0.1-1.6-0.3-2.4
			c-0.1-0.7-0.2-1.4-0.3-2.1c-2.1-12.5-7.8-24.7-16.1-34.4c-10.2-12-24.3-20.2-39.8-20.5c-0.8-1.6-1.1-3.5-1.1-5.4v-62.1
			c0-7.7,6.3-14,14-14h400.1c7.7,0,14,6.3,14,14v62.1c0,6.9-5,12.5-11.7,13.9C523.6,242.5,503.7,265.9,503.7,293.9z"/>
		<path class="st1" d="M461.7,449.3v58.4c0,12.7-10.3,23.1-23.1,23.1h-392c-7.2,0-13-5.8-13-13v-77.1c0-0.7,0.5-1.2,1.2-1.2
			c24-0.5,46-15.7,53.1-38.7c11.7-38.2-16.1-73.1-52.1-74.5c-1.2,0-2.1-1-2.1-2.2v-78c0-9.6,7.8-17.4,17.4-17.4h82.6
			c0.4,0,0.8,0,1.1,0c15.5,0.3,29.6,8.5,39.8,20.5c8.3,9.7,14,21.8,16.1,34.4c0.1,0.7,0.2,1.4,0.3,2.1c0.1,0.8,0.2,1.6,0.3,2.4
			c0.1,0.9,0.2,1.8,0.2,2.7c0,1,0.1,2,0.1,3s0,2-0.1,3c0,1-0.1,1.9-0.2,2.9c0,0.1,0,0.2,0,0.3c-0.1,0.9-0.2,1.8-0.3,2.7
			c-0.1,0.9-0.3,1.9-0.5,2.8c-0.1,0.6-0.3,1.2-0.4,1.8c-0.2,0.6-0.3,1.2-0.5,1.7c-1,3.6-2.3,7-3.9,10.3c-0.3,0.7-0.7,1.4-1.1,2.1
			c-3,5.5-6.9,10.5-11.4,14.8c-0.5,0.5-1.1,1-1.7,1.5c-0.6,0.5-1.2,1.1-1.9,1.6l0,0c-0.6,0.5-1.3,1-1.9,1.4c-4,2.9-8.5,5.4-13.3,7.2
			c-0.6,0.2-1.2,0.5-1.8,0.7c-2.4,0.8-4.8,1.5-7.4,2c-6.7,1.4-11.7,7-11.7,13.8v72c0,7.1,5.7,12.8,12.8,12.8h315.4V449.3z"/>
		<line class="st1" x1="286.2" y1="180.3" x2="286.2" y2="411.8"/>
		<line class="st1" x1="228.6" y1="183.6" x2="260.7" y2="183.6"/>
		<line class="st1" x1="228.6" y1="228.7" x2="260.7" y2="228.7"/>
		<line class="st1" x1="228.6" y1="268.4" x2="260.7" y2="268.4"/>
		<line class="st1" x1="228.6" y1="313.5" x2="260.7" y2="313.5"/>
		<line class="st1" x1="228.6" y1="355.3" x2="260.7" y2="355.3"/>
		<line class="st1" x1="228.6" y1="400.4" x2="260.7" y2="400.4"/>
		<line class="st1" x1="329.7" y1="268.4" x2="447" y2="268.4"/>
		<line class="st1" x1="329.7" y1="323.2" x2="379.7" y2="323.2"/>
		<line class="st1" x1="401.4" y1="323.2" x2="432.4" y2="323.2"/>
	</g>
</g>
</svg>
