<?xml version="1.0" encoding="utf-8"?>
<!-- Generator: Adobe Illustrator 27.5.0, SVG Export Plug-In . SVG Version: 6.00 Build 0)  -->
<svg version="1.1" id="Livello_1" xmlns="http://www.w3.org/2000/svg" xmlns:xlink="http://www.w3.org/1999/xlink" x="0px" y="0px"
	 viewBox="0 0 992.1 992.1" style="enable-background:new 0 0 992.1 992.1;" xml:space="preserve">
<style type="text/css">
	.st0{fill:#FEF9F2;stroke:#8A2D0E;stroke-width:20.3921;stroke-miterlimit:10;}
</style>
<g id="Livello_2_00000155130464531724494640000017985332550553829046_">
	<g>
		<path class="st0" d="M874.4,405.6c0,51.7,36.7,94.9,85.5,104.9c12.4,2.6,21.6,12.9,21.6,25.5v130.8c0,14.2-11.6,25.9-25.9,25.9
			H216.8c-14.2,0-25.9-11.6-25.9-25.9V536c0-12.5,9.2-22.9,21.6-25.5c4.8-0.9,9.2-2.2,13.7-3.7c1.1-0.4,2.2-0.9,3.3-1.2
			c8.9-3.5,17-8,24.5-13.2c1.1-0.9,2.4-1.7,3.5-2.6l0,0c1.1-0.9,2.4-1.9,3.5-3c1.1-0.9,2.1-1.9,3.1-2.8c8.3-8,15.5-17.2,21-27.3
			c0.7-1.2,1.2-2.4,2.1-3.8c3-6.1,5.4-12.4,7.2-19c0.4-0.9,0.5-2.1,0.9-3.1c0.2-1.1,0.5-2.2,0.7-3.3c0.4-1.7,0.7-3.5,0.9-5.2
			c0.2-1.7,0.5-3.5,0.5-5c0-0.2,0-0.4,0-0.5c0.2-1.9,0.4-3.5,0.4-5.4s0.2-3.7,0.2-5.6s0-3.7-0.2-5.6c0-1.7-0.2-3.5-0.4-5
			c0-1.4-0.2-3-0.5-4.4c-0.2-1.2-0.4-2.6-0.5-3.8c-3.8-23.1-14.4-45.6-29.7-63.5c-18.8-22.1-44.9-37.4-73.5-37.9
			c-1.4-3-2.1-6.4-2.1-9.9V160.8c0-14.2,11.6-25.9,25.9-25.9h738.9c14.2,0,25.9,11.6,25.9,25.9v114.6c0,12.7-9.2,23.1-21.6,25.7
			C911.1,310.8,874.4,354,874.4,405.6z"/>
		<path class="st0" d="M796.9,692.7v107.8c0,23.5-19,42.6-42.6,42.6h-724c-13.2,0-24-10.8-24-24V676.7c0-1.2,0.9-2.2,2.2-2.2
			c44.3-0.9,85-29,98.1-71.5c21.6-70.6-29.7-135-96.2-137.6c-2.2,0-3.8-1.9-3.8-4v-144c0-17.7,14.4-32.2,32.2-32.2h152.5
			c0.7,0,1.4,0,2.1,0c28.7,0.5,54.6,15.7,73.5,37.9c15.3,17.9,25.9,40.3,29.7,63.5c0.2,1.2,0.4,2.6,0.5,3.8c0.2,1.4,0.4,3,0.5,4.4
			c0.2,1.7,0.4,3.3,0.4,5c0,1.9,0.2,3.7,0.2,5.6c0,1.9,0,3.7-0.2,5.6c0,1.9-0.2,3.5-0.4,5.4c0,0.2,0,0.4,0,0.5
			c-0.2,1.7-0.4,3.3-0.5,5c-0.2,1.7-0.5,3.5-0.9,5.2c-0.2,1.1-0.5,2.2-0.7,3.3c-0.4,1.1-0.5,2.2-0.9,3.1c-1.9,6.6-4.2,12.9-7.2,19
			c-0.5,1.2-1.2,2.6-2.1,3.8c-5.6,10.1-12.7,19.3-21,27.3c-0.9,0.9-2.1,1.9-3.1,2.8c-1.1,0.9-2.2,2.1-3.5,3l0,0
			c-1.1,0.9-2.4,1.9-3.5,2.6c-7.3,5.4-15.7,9.9-24.5,13.2c-1.1,0.4-2.2,0.9-3.3,1.2c-4.4,1.4-8.9,2.8-13.7,3.7
			c-12.4,2.6-21.6,12.9-21.6,25.5v133c0,13.1,10.6,23.6,23.6,23.6h582.5L796.9,692.7L796.9,692.7z"/>
		<line class="st0" x1="472.7" y1="195.9" x2="472.7" y2="623.3"/>
		<line class="st0" x1="366.4" y1="202" x2="425.6" y2="202"/>
		<line class="st0" x1="366.4" y1="285.3" x2="425.6" y2="285.3"/>
		<line class="st0" x1="366.4" y1="358.6" x2="425.6" y2="358.6"/>
		<line class="st0" x1="366.4" y1="441.9" x2="425.6" y2="441.9"/>
		<line class="st0" x1="366.4" y1="519" x2="425.6" y2="519"/>
		<line class="st0" x1="366.4" y1="602.3" x2="425.6" y2="602.3"/>
		<line class="st0" x1="553.1" y1="358.6" x2="769.7" y2="358.6"/>
		<line class="st0" x1="553.1" y1="459.8" x2="645.4" y2="459.8"/>
		<line class="st0" x1="685.4" y1="459.8" x2="742.8" y2="459.8"/>
	</g>
</g>
</svg>
