<?xml version="1.0" encoding="utf-8"?>
<!-- Generator: Adobe Illustrator 27.5.0, SVG Export Plug-In . SVG Version: 6.00 Build 0)  -->
<svg version="1.1" id="Livello_1" xmlns="http://www.w3.org/2000/svg" xmlns:xlink="http://www.w3.org/1999/xlink" x="0px" y="0px"
	 viewBox="0 0 992.1 992.1" style="enable-background:new 0 0 992.1 992.1;" xml:space="preserve">
<style type="text/css">
	.st0{fill:none;stroke:#FEF9F2;stroke-width:36.2239;stroke-miterlimit:10;}
</style>
<g id="Livello_2_00000155130464531724494640000017985332550553829046_">
	<g>
		<path class="st0" d="M868.5,406.2c0,50.7,36,93.1,83.8,102.9c12.2,2.5,21.2,12.7,21.2,25v128.3c0,13.9-11.4,25.4-25.4,25.4H223.5
			c-13.9,0-25.4-11.4-25.4-25.4V534.1c0-12.3,9-22.4,21.2-25c4.7-0.9,9-2.1,13.4-3.7c1.1-0.4,2.1-0.9,3.2-1.2
			c8.7-3.5,16.6-7.8,24.1-13c1.1-0.9,2.3-1.6,3.5-2.5l0,0c1.1-0.9,2.3-1.8,3.5-2.9c1.1-0.9,2-1.8,3-2.7c8.1-7.8,15.2-16.8,20.6-26.8
			c0.7-1.2,1.2-2.3,2-3.8c2.9-6,5.3-12.2,7.1-18.7c0.4-0.9,0.5-2,0.9-3c0.2-1.1,0.5-2.1,0.7-3.2c0.4-1.6,0.7-3.5,0.9-5.1
			c0.2-1.6,0.5-3.5,0.5-4.9c0-0.2,0-0.4,0-0.5c0.2-1.8,0.4-3.5,0.4-5.3c0-1.8,0.2-3.7,0.2-5.5c0-1.8,0-3.7-0.2-5.5
			c0-1.6-0.2-3.5-0.4-4.9c0-1.4-0.2-2.9-0.5-4.4c-0.2-1.2-0.4-2.5-0.5-3.8c-3.8-22.6-14.1-44.8-29.1-62.3
			c-18.5-21.7-44-36.6-72.1-37.1c-1.4-2.9-2-6.3-2-9.7V166.1c0-13.9,11.4-25.4,25.4-25.4h724.7c13.9,0,25.4,11.4,25.4,25.4v112.4
			c0,12.5-9,22.6-21.2,25.2C904.5,313.2,868.5,355.6,868.5,406.2z"/>
		<path class="st0" d="M792.4,687.8v105.7c0,23-18.7,41.8-41.8,41.8H40.5c-13,0-23.5-10.6-23.5-23.5V672.1c0-1.2,0.9-2.1,2.1-2.1
			c43.4-0.9,83.3-28.4,96.2-70.1c21.2-69.2-29.1-132.4-94.4-135c-2.1,0-3.8-1.8-3.8-4V319.7c0-17.4,14.1-31.6,31.6-31.6h149.6
			c0.7,0,1.4,0,2,0c28.1,0.5,53.6,15.4,72.1,37.1c15,17.6,25.4,39.5,29.1,62.3c0.2,1.2,0.4,2.5,0.5,3.8c0.2,1.4,0.4,2.9,0.5,4.4
			c0.2,1.6,0.4,3.2,0.4,4.9c0,1.8,0.2,3.7,0.2,5.5c0,1.8,0,3.7-0.2,5.5c0,1.8-0.2,3.5-0.4,5.3c0,0.2,0,0.4,0,0.5
			c-0.2,1.6-0.4,3.2-0.5,4.9c-0.2,1.6-0.5,3.5-0.9,5.1c-0.2,1.1-0.5,2.1-0.7,3.2c-0.4,1.1-0.5,2.1-0.9,3c-1.8,6.5-4.2,12.7-7.1,18.7
			c-0.5,1.2-1.2,2.5-2,3.8c-5.5,9.9-12.5,19-20.6,26.8c-0.9,0.9-2,1.8-3,2.7c-1.1,0.9-2.1,2-3.5,2.9l0,0c-1.1,0.9-2.3,1.8-3.5,2.5
			c-7.2,5.3-15.4,9.7-24.1,13c-1.1,0.4-2.1,0.9-3.2,1.2c-4.4,1.4-8.7,2.7-13.4,3.7c-12.2,2.5-21.2,12.7-21.2,25v130.4
			c0,12.9,10.4,23.1,23.1,23.1h571.3L792.4,687.8L792.4,687.8z"/>
		<line class="st0" x1="474.5" y1="200.5" x2="474.5" y2="619.8"/>
		<line class="st0" x1="370.3" y1="206.5" x2="428.3" y2="206.5"/>
		<line class="st0" x1="370.3" y1="288.2" x2="428.3" y2="288.2"/>
		<line class="st0" x1="370.3" y1="360.1" x2="428.3" y2="360.1"/>
		<line class="st0" x1="370.3" y1="441.8" x2="428.3" y2="441.8"/>
		<line class="st0" x1="370.3" y1="517.5" x2="428.3" y2="517.5"/>
		<line class="st0" x1="370.3" y1="599.2" x2="428.3" y2="599.2"/>
		<line class="st0" x1="553.3" y1="360.1" x2="765.8" y2="360.1"/>
		<line class="st0" x1="553.3" y1="459.3" x2="643.9" y2="459.3"/>
		<line class="st0" x1="683.1" y1="459.3" x2="739.4" y2="459.3"/>
	</g>
</g>
</svg>
