<?xml version="1.0" encoding="utf-8"?>
<!-- Generator: Adobe Illustrator 24.0.1, SVG Export Plug-In . SVG Version: 6.00 Build 0)  -->
<svg version="1.1" id="Livello_1" xmlns="http://www.w3.org/2000/svg" xmlns:xlink="http://www.w3.org/1999/xlink" x="0px" y="0px"
	 viewBox="0 0 992.1 992.1" style="enable-background:new 0 0 992.1 992.1;" xml:space="preserve">
<style type="text/css">
	.st0{fill:none;stroke:#8a2d0e;stroke-width:40;stroke-miterlimit:10;}
	.st1{fill:#8a2d0e;stroke:#8a2d0e;stroke-width:40;stroke-miterlimit:10;}
</style>
<g>
	<path class="st0" d="M224.9,648.6c1.9-18,3.2-37.5,3.2-57.6c0-51.7-6.8-98.3-18.6-132.1c-16.6-9.1-35.2-14.4-55-14.4
		c-11.7,0-23.3,1.8-34.2,5.4c9.5-24.4,21.2-40.6,34.2-45.9c31.9-160,96.7-295,330.2-295c323.2,0,351.6,297.8,352.3,298.2
		c21.5,13.8,10.5,11.7,21.7,39.6c-6.8-1.8-14-2.3-21.5-2.3c-25.6,0-49.1,8.2-69,23c-10,32.9-16.1,76.2-16.1,123.5
		c0,15.4,0.5,30.3,1.9,44.7"/>
	<path class="st0" d="M228,590.9c0,20.1-1.2,39.6-3.2,57.6c-2.8,28.4-8.2,54-15.4,74.6v0.4c-11.7,34.7-28,56.2-46.3,56.2
		c-16.6,0-31.5-18-42.9-47.7c-13.5-34.3-22.1-84.8-22.1-141s8.6-106.7,22.1-141c10.9-3.7,22.4-5.4,34.2-5.4c19.8,0,38.4,5.1,55,14.4
		C221.2,492.7,228,539.4,228,590.9z"/>
	<path class="st0" d="M120.3,449.9c-13.5,34.3-22.1,84.8-22.1,141s8.6,106.7,22.1,141C65.8,715,26,658.2,26,590.9
		C25.8,523.7,65.8,466.9,120.3,449.9z"/>
	<path class="st0" d="M881.8,590.9c0,58-8.9,109.5-23.3,144.2C847.3,763,833,779.6,817,779.6c-19.4,0-37-25.2-49.1-65.3
		c-6.7-22.1-11.2-49.1-13.8-78.5c-1.4-14.4-1.9-29.3-1.9-44.7c0-47.3,6-90.6,16.1-123.5c20.1-14.5,43.6-23,69-23
		c7.5,0,14.5,0.5,21.5,2.3C872.9,481.3,881.8,533.1,881.8,590.9z"/>
	<path class="st0" d="M966.1,590.9c0,72.5-46.4,133-107.6,144.2c14.4-34.7,23.3-86.4,23.3-144.2s-8.9-109.8-23-144.2
		C919.9,458.3,966.1,518.4,966.1,590.9z"/>
	<path class="st1" d="M816.1,402.3"/>
</g>
</svg>
