<?xml version="1.0" encoding="utf-8"?>
<!-- Generator: Adobe Illustrator 24.0.1, SVG Export Plug-In . SVG Version: 6.00 Build 0)  -->
<svg version="1.1" id="Livello_1" xmlns="http://www.w3.org/2000/svg" xmlns:xlink="http://www.w3.org/1999/xlink" x="0px" y="0px"
	 viewBox="0 0 5400 5400" style="enable-background:new 0 0 5400 5400;" xml:space="preserve">
<style type="text/css">
	.st0{display:none;}
	.st1{display:inline;}
	.st2{fill:none;stroke:#F5EFE6;stroke-width:90;stroke-miterlimit:10;}
</style>
<g id="Livello_1_1_" class="st0">
	<g id="Artboard_1" class="st1">
	</g>
</g>
<g id="Livello_2_1_">
	<path class="st2" d="M359.5,371.8c0,0-24.1-3.9-48.2,13.5c0,0-99.3,71.3-95.4,109.9c0,0-2.9,19.3,45.3,18.3h4919.2
		c0,0,47.2,1.4,38.1-35.7l-114.7-93.5c0,0-18.8-13.3-47.2-12.9L359.5,371.8z"/>
	<line class="st2" x1="881.1" y1="989.7" x2="4536.5" y2="989.7"/>
	<path class="st2" d="M782.7,2146.5c0,0,5.8,154.2-148.5,169.7c0,0-129.2,30.8-173.5-84.8c0,0-54-79,0-192.8
		c0,0,52.1-127.2,183.2-188.9c0,0,127.2-59.8,221.7-19.3c0,0,125.3,36.6,188.9,129.2c0,0,73.3,82.9,69.4,185.1
		c0,0-7.7,144.6-44.3,225.6c0,0-61.7,96.4-111.8,152.3c0,0-115.7,88.7-235.2,117.6c0,0-281.4,75.2-474.3-123.4
		c0,0-131.1-142.7-156.2-306.5c0,0-15.4-169.7,55.9-343.2c0,0,136.9-219.8,269.9-293c0,0,187-106,377.9-88.7
		c0,0,210.1-5.8,379.8,102.2c0,0,129.2,69.4,212.1,302.7c0,0,55.9,148.5,69.4,420.3v593.8v802"/>
	<path class="st2" d="M4617.3,2146.5c0,0-5.8,154.2,148.5,169.7c0,0,129.2,30.8,173.5-84.8c0,0,54-79,0-192.8
		c0,0-52.1-127.2-183.2-188.9c0,0-127.2-59.8-221.7-19.3c0,0-125.3,36.6-188.9,129.2c0,0-73.3,82.9-69.4,185.1
		c0,0,7.7,144.6,44.3,225.6c0,0,61.7,96.4,111.8,152.3c0,0,115.7,88.7,235.2,117.6c0,0,281.4,75.2,474.3-123.4
		c0,0,131.1-142.7,156.2-306.5c0,0,15.4-169.7-55.9-343.2c0,0-136.9-219.8-269.9-293c0,0-187-106-377.9-88.7
		c0,0-210.1-5.8-379.8,102.2c0,0-129.2,69.4-212.1,302.7c0,0-55.9,148.5-69.4,420.3v593.8v802"/>
	<line class="st2" x1="1857.5" y1="1483.3" x2="1857.5" y2="4223.4"/>
	<line class="st2" x1="3523.2" y1="1483.3" x2="3523.2" y2="4223.4"/>
	<line class="st2" x1="2275.8" y1="1483.3" x2="2275.8" y2="4730.4"/>
	<line class="st2" x1="3104.3" y1="1483.3" x2="3104.3" y2="4730.4"/>
	<line class="st2" x1="2692.9" y1="1483.3" x2="2692.9" y2="5221"/>
</g>
</svg>
