<?xml version="1.0" encoding="utf-8"?>
<!-- Generator: Adobe Illustrator 24.0.1, SVG Export Plug-In . SVG Version: 6.00 Build 0)  -->
<svg version="1.1" id="Livello_1" xmlns="http://www.w3.org/2000/svg" xmlns:xlink="http://www.w3.org/1999/xlink" x="0px" y="0px"
	 viewBox="0 0 5400 5400" style="enable-background:new 0 0 5400 5400;" xml:space="preserve">
<style type="text/css">
	.st0{display:none;}
	.st1{display:inline;}
	.st2{fill:#F5EFE6;stroke:#8A2D0E;stroke-width:61;stroke-miterlimit:10;}
	.st3{fill:none;stroke:#8A2D0E;stroke-width:200;stroke-miterlimit:10;}
</style>
<g id="Livello_1_1_" class="st0">
	<g id="Artboard_1" class="st1">
	</g>
</g>
<circle class="st2" cx="2700" cy="2700" r="2649.7"/>
<g id="Livello_2_1_">
	<path class="st3" d="M860.6,1235.8c0,0-18.9-3.1-37.9,10.6c0,0-78,56-75,86.4c0,0-2.3,15.2,35.6,14.4h3866c0,0,37.1,1.1,29.9-28.1
		l-90.1-73.5c0,0-14.8-10.5-37.1-10.1L860.6,1235.8z"/>
	<line class="st3" x1="1270.5" y1="1721.4" x2="4143.3" y2="1721.4"/>
	<path class="st3" d="M1193.2,2630.5c0,0,4.6,121.2-116.7,133.4c0,0-101.5,24.2-136.4-66.6c0,0-42.4-62.1,0-151.5
		c0,0,40.9-100,144-148.5c0,0,100-47,174.2-15.2c0,0,98.5,28.8,148.5,101.5c0,0,57.6,65.2,54.5,145.5c0,0-6.1,113.6-34.8,177.3
		c0,0-48.5,75.8-87.9,119.7c0,0-90.9,69.7-184.8,92.4c0,0-221.2,59.1-372.8-97c0,0-103-112.1-122.8-240.9c0,0-12.1-133.4,43.9-269.7
		c0,0,107.6-172.7,212.1-230.3c0,0,147-83.3,297-69.7c0,0,165.1-4.6,298.5,80.3c0,0,101.5,54.5,166.7,237.9
		c0,0,43.9,116.7,54.5,330.3v466.7v630.3"/>
	<path class="st3" d="M4206.8,2630.5c0,0-4.6,121.2,116.7,133.4c0,0,101.5,24.2,136.4-66.6c0,0,42.4-62.1,0-151.5
		c0,0-40.9-100-144-148.5c0,0-100-47-174.2-15.2c0,0-98.5,28.8-148.5,101.5c0,0-57.6,65.2-54.5,145.5c0,0,6.1,113.6,34.8,177.3
		c0,0,48.5,75.8,87.9,119.7c0,0,90.9,69.7,184.8,92.4c0,0,221.2,59.1,372.8-97c0,0,103-112.1,122.8-240.9c0,0,12.1-133.4-43.9-269.7
		c0,0-107.6-172.7-212.1-230.3c0,0-147-83.3-297-69.7c0,0-165.1-4.6-298.5,80.3c0,0-101.5,54.5-166.7,237.9
		c0,0-43.9,116.7-54.5,330.3v466.7v630.3"/>
	<line class="st3" x1="2037.9" y1="2109.3" x2="2037.9" y2="4262.8"/>
	<line class="st3" x1="3347" y1="2109.3" x2="3347" y2="4262.8"/>
	<line class="st3" x1="2366.6" y1="2109.3" x2="2366.6" y2="4661.2"/>
	<line class="st3" x1="3017.7" y1="2109.3" x2="3017.7" y2="4661.2"/>
	<line class="st3" x1="2694.4" y1="2109.3" x2="2694.4" y2="5046.8"/>
</g>
</svg>
