<svg xmlns="http://www.w3.org/2000/svg" xmlns:xlink="http://www.w3.org/1999/xlink" viewBox="0,0,256,256" width="30px" height="30px" fill-rule="nonzero"><g fill="none" fill-rule="nonzero" stroke="none" stroke-width="1" stroke-linecap="butt" stroke-linejoin="miter" stroke-miterlimit="10" stroke-dasharray="" stroke-dashoffset="0" font-family="none" font-weight="none" font-size="none" text-anchor="none" style="mix-blend-mode: normal"><g transform="scale(3.2,3.2)"><path d="M8,65.5c-3.032,0 -5.5,-2.467 -5.5,-5.5v-40c0,-3.033 2.468,-5.5 5.5,-5.5h64c3.032,0 5.5,2.467 5.5,5.5v40c0,3.033 -2.468,5.5 -5.5,5.5z" fill-opacity="0" fill="#8bb7f0"></path><path d="M72,15c2.757,0 5,2.243 5,5v40c0,2.757 -2.243,5 -5,5h-64c-2.757,0 -5,-2.243 -5,-5v-40c0,-2.757 2.243,-5 5,-5h64M72,14h-64c-3.314,0 -6,2.686 -6,6v40c0,3.314 2.686,6 6,6h64c3.314,0 6,-2.686 6,-6v-40c0,-3.314 -2.686,-6 -6,-6z" fill="#eeeff0"></path><path d="M34,40c0,-5.324 2.325,-10.094 6,-13.39c-3.186,-2.857 -7.383,-4.61 -12,-4.61c-9.941,0 -18,8.059 -18,18c0,9.941 8.059,18 18,18c4.617,0 8.814,-1.753 12,-4.61c-3.675,-3.296 -6,-8.066 -6,-13.39z" fill="#c74343"></path><path d="M52,22c-4.617,0 -8.814,1.753 -12,4.61c3.675,3.296 6,8.065 6,13.39c0,5.324 -2.325,10.094 -6,13.39c3.186,2.857 7.383,4.61 12,4.61c9.941,0 18,-8.059 18,-18c0,-9.941 -8.059,-18 -18,-18z" fill="#f5aa26"></path><g fill="#ff7c24"><path d="M46,40c0,-5.324 -2.325,-10.094 -6,-13.39c-3.675,3.296 -6,8.065 -6,13.39c0,5.324 2.325,10.094 6,13.39c3.675,-3.296 6,-8.066 6,-13.39z"></path></g></g></g></svg>