<?xml version="1.0" encoding="utf-8"?>
<!-- Generator: Adobe Illustrator 27.5.0, SVG Export Plug-In . SVG Version: 6.00 Build 0)  -->
<svg version="1.1" xmlns="http://www.w3.org/2000/svg" xmlns:xlink="http://www.w3.org/1999/xlink" x="0px" y="0px"
	 viewBox="0 0 800 800" style="enable-background:new 0 0 800 800;" xml:space="preserve">
<style type="text/css">
	.st0{fill:#F5EFE6;stroke:#8A2D0E;stroke-width:16;stroke-miterlimit:133.3333;}
	.st1{fill:#8A2D0E;}
</style>
<g id="Livello_1">
	<g id="SVGRepo_bgCarrier">
	</g>
	<g id="SVGRepo_tracerCarrier">
	</g>
	<path class="st0" d="M400,66.7C216.3,66.7,66.7,216.3,66.7,400S216.3,733.3,400,733.3S733.3,583.7,733.3,400S583.7,66.7,400,66.7z"
		/>
</g>
<g id="Livello_2">
	<path class="st1" d="M459.7,500c9.7,9.7,9.7,25.7,0,35.3c-5,5-11.3,7.3-17.7,7.3c-6.3,0-12.7-2.3-17.7-7.3L306.7,417.7
		c-9.7-9.7-9.7-25.7,0-35.3l117.7-117.7c9.7-9.7,25.7-9.7,35.3,0c9.7,9.7,9.7,25.7,0,35.3l-100,100L459.7,500z"/>
</g>
</svg>
