<?xml version="1.0" encoding="utf-8"?>
<!-- Generator: Adobe Illustrator 27.5.0, SVG Export Plug-In . SVG Version: 6.00 Build 0)  -->
<svg version="1.1" xmlns="http://www.w3.org/2000/svg" xmlns:xlink="http://www.w3.org/1999/xlink" x="0px" y="0px"
	 viewBox="0 0 992.1 992.1" style="enable-background:new 0 0 992.1 992.1;" xml:space="preserve">
<style type="text/css">
	.st0{display:none;}
	.st1{fill:#FEF9F2;}
</style>
<g id="Livello_1" class="st0">
	
		<image style="display:inline;overflow:visible;" width="418" height="440" xlink:href="83B6B876.jpg"  transform="matrix(1.5793 0 0 1.5793 179.1613 101.671)">
	</image>
</g>
<g id="Livello_2">
	<g>
		<path class="st1" d="M396.4,972.2H199.6c-9.6,0-17.4-7.8-17.4-17.4V37.3c0-9.6,7.8-17.4,17.4-17.4h196.8c9.6,0,17.4,7.8,17.4,17.4
			v917.4C413.8,964.4,406,972.2,396.4,972.2z"/>
		<path class="st1" d="M792.5,972.2H595.7c-9.6,0-17.4-7.8-17.4-17.4V37.3c0-9.6,7.8-17.4,17.4-17.4h196.8c9.6,0,17.4,7.8,17.4,17.4
			v917.4C809.9,964.4,802.1,972.2,792.5,972.2z"/>
	</g>
</g>
</svg>
