<?xml version="1.0" encoding="utf-8"?>
<!-- Generator: Adobe Illustrator 27.5.0, SVG Export Plug-In . SVG Version: 6.00 Build 0)  -->
<svg version="1.1" id="Livello_1" xmlns="http://www.w3.org/2000/svg" xmlns:xlink="http://www.w3.org/1999/xlink" x="0px" y="0px"
	 viewBox="0 0 992.1 992.1" style="enable-background:new 0 0 992.1 992.1;" xml:space="preserve">
<style type="text/css">
	.st0{fill:none;stroke:#8A2D0E;stroke-width:70;stroke-miterlimit:10;}
</style>
<g>
	<circle class="st0" cx="528.2" cy="177.1" r="122.7"/>
	<path class="st0" d="M605.4,673.1H450.9c-25.1,0-45.4-20.3-45.4-45.4V372.9c0-25.1,20.3-45.4,45.4-45.4h154.6
		c25.1,0,45.4,20.3,45.4,45.4v254.9C650.8,652.8,630.5,673.1,605.4,673.1z"/>
	<path class="st0" d="M527.2,673.1c0,0,178.2-15.5,200,33.1l65.2,185.4"/>
	<path class="st0" d="M258.9,491.1c0,0-128.1,72.5-109.5,246.9s177.4,192.9,177.4,192.9s168.3,50.8,282.9-122.9"/>
</g>
</svg>
