<?xml version="1.0" encoding="utf-8"?>
<!-- Generator: Adobe Illustrator 27.5.0, SVG Export Plug-In . SVG Version: 6.00 Build 0)  -->
<svg version="1.1" id="Livello_1" xmlns="http://www.w3.org/2000/svg" xmlns:xlink="http://www.w3.org/1999/xlink" x="0px" y="0px"
	 viewBox="0 0 992.1 992.1" style="enable-background:new 0 0 992.1 992.1;" xml:space="preserve">
<style type="text/css">
	.st0{fill:none;stroke:#8A2D0E;stroke-width:31.7009;stroke-miterlimit:10;}
	.st1{fill:none;stroke:#8A2D0E;stroke-width:31.0424;stroke-miterlimit:10;}
</style>
<g>
	<circle class="st0" cx="253.7" cy="141.1" r="107"/>
	<circle class="st0" cx="728" cy="133" r="107"/>
	<path class="st0" d="M654.7,55.2c0,0-121.4,40-155,169h91.4C591.1,224.2,581.3,90.5,654.7,55.2z"/>
	<path class="st0" d="M799.4,56.6c0,0,121.4,40,155,169H863C863,225.6,872.8,91.8,799.4,56.6z"/>
	<path class="st0" d="M482.3,662.3c23.5-54.3-77.9-314.4-77.9-314.4c-25.5-48.4-76.6-43-76.6-43H166.5
		c-65.8,5.4-123.6,201.6-123.6,201.6C-6.8,687.8,59,677.1,59,677.1c41.7-10.7,83.3-202,83.3-202l4.4-23.7v110.2h224.1l-0.7-116
		l2.6,21.7c0,0,41.7,191.3,83.3,202C456,669.3,477.4,673.6,482.3,662.3z"/>
	<path class="st0" d="M634.1,455.8c0,0-58.1,210.5-99.7,221.3c0,0-65.8,10.7-16.1-170.6c0,0,57.8-196.2,123.6-201.6h161.2
		c0,0,51.1-5.4,76.6,43c0,0,123.6,276.8,77.9,314.4c0,0-39.1,53.7-123.8-204.2l67.1,219.1H581.3L634.1,455.8z"/>
	<rect x="144.3" y="571" class="st0" width="228.1" height="106.2"/>
	<path class="st0" d="M144.3,677.2v211c0,0-3.3,44.3,20.8,44.3c0,0,43,20.2,45.7-40.3v-215H144.3z"/>
	<path class="st1" d="M305.9,687.8v202.3c0,0-3.3,42.5,20.8,42.5c0,0,43,19.3,45.7-38.7V687.8H305.9z"/>
	<path class="st0" d="M661.5,677.2v211c0,0-3.3,44.3,20.8,44.3c0,0,43,20.2,45.7-40.3v-215H661.5z"/>
	<path class="st0" d="M740.7,677.2v211c0,0-3.3,44.3,20.8,44.3c0,0,43,20.2,45.7-40.3v-215H740.7z"/>
</g>
</svg>
